    <svg
      xmlns="http://www.w3.org/2000/svg"
      x="0"
      y="0"
      enableBackground="new 0 0 512.002 512.002"
      version="1.1"
      viewBox="0 0 512.002 512.002"
      xmlSpace="preserve"
    >
      <path
        fill="white"
        d="M504.5 95.181L343.68 256.001 504.5 416.821 483.29 438.041 211.25 256.001 483.29 73.971z"
      ></path>
      <path
        fill="white"
        d="M483.29 73.971L301.25 256.001 483.29 438.041 416.82 504.501 256 343.681 95.18 504.501 7.5 416.821 168.32 256.001 7.5 95.181 95.18 7.501 256 168.321 416.82 7.501z"
      ></path>
      <path d="M354.288 256.001l155.516-155.515a7.5 7.5 0 000-10.607L422.123 2.198a7.499 7.499 0 00-10.607-.001L256 157.713 100.486 2.198a7.502 7.502 0 00-10.607 0L2.197 89.879a7.501 7.501 0 00-.001 10.608l155.517 155.514L93.212 320.5a7.5 7.5 0 0010.607 10.607l69.804-69.803a7.502 7.502 0 000-10.608L18.107 95.183l77.075-77.075 155.515 155.516a7.502 7.502 0 0010.607 0L416.82 18.108l77.074 77.075-155.516 155.515a7.5 7.5 0 000 10.607L493.894 416.82l-77.074 77.075-155.516-155.516a7.502 7.502 0 00-10.607 0L95.182 493.895 18.107 416.82l64.5-64.499A7.5 7.5 0 0072 341.714L2.197 411.516a7.5 7.5 0 000 10.607l87.682 87.682c1.465 1.464 3.385 2.196 5.304 2.196s3.839-.732 5.304-2.196L256 354.289l155.516 155.516a7.502 7.502 0 0010.608 0l87.681-87.682a7.5 7.5 0 000-10.607L354.288 256.001z"></path>
    </svg>
