<?xml version="1.0" encoding="iso-8859-1"?>
<!-- Generator: Adobe Illustrator 19.0.0, SVG Export Plug-In . SVG Version: 6.00 Build 0)  -->
<svg version="1.1" id="Capa_1" xmlns="http://www.w3.org/2000/svg" xmlns:xlink="http://www.w3.org/1999/xlink" x="0px" y="0px"
	 viewBox="0 0 497.664 497.664" style="enable-background:new 0 0 497.664 497.664;" xml:space="preserve" fill="#C0C0C0">
<g>
	<g>
		<polygon points="464,54.352 300.688,217.664 307.096,224.072 259.52,252.624 267.76,266.336 318.76,235.736 337.952,254.928
			270.056,271.904 273.944,287.424 351.144,268.12 362.344,279.32 373.656,268.008 323.312,217.664 336,204.976 354.344,223.32
			365.656,212.008 347.312,193.664 360,180.976 378.344,199.32 389.656,188.008 371.312,169.664 384,156.976 402.344,175.32
			413.656,164.008 395.312,145.664 408,132.976 426.344,151.32 437.656,140.008 419.312,121.664 432,108.976 450.344,127.32
			461.656,116.008 443.312,97.664 464,76.976 478.336,91.312 384,287.84 384,289.664 368,289.664 368,305.664 384,305.664
			384,335.416 273.944,307.904 270.056,323.424 381.056,351.176 365.864,387.856 267.76,328.992 259.52,342.704 356.808,401.08
			335.768,422.12 324.448,410.8 313.136,422.112 324.456,433.432 303.416,454.472 245.04,357.184 231.328,365.424 290.192,463.528
			253.512,478.72 225.76,367.72 210.24,371.608 237.752,481.664 208,481.664 208,465.664 192,465.664 192,481.664 162.248,481.664
			189.76,371.608 174.24,367.72 146.488,478.72 109.808,463.528 168.672,365.424 154.96,357.184 96.584,454.472 75.544,433.432
			86.864,422.112 75.552,410.8 64.232,422.12 43.192,401.08 140.48,342.704 132.24,328.992 34.136,387.856 18.944,351.176
			129.944,323.424 126.056,307.904 16,335.416 16,305.664 32,305.664 32,289.664 16,289.664 16,259.912 126.056,287.424
			129.944,271.904 18.944,244.152 34.136,207.472 132.24,266.336 140.48,252.624 43.192,194.248 64.232,173.208 75.552,184.528
			86.864,173.216 75.544,161.896 96.584,140.856 154.96,238.144 168.672,229.904 109.808,131.8 146.488,116.608 174.24,227.608
			189.76,223.72 162.248,113.664 192,113.664 192,129.664 208,129.664 208,113.664 209.824,113.664 406.352,19.328 420.688,33.664
			400,54.352 381.656,36.008 370.344,47.32 388.688,65.664 376,78.352 357.656,60.008 346.344,71.32 364.688,89.664 352,102.352
			333.656,84.008 322.344,95.32 340.688,113.664 328,126.352 309.656,108.008 298.344,119.32 316.688,137.664 304,150.352
			285.656,132.008 274.344,143.32 292.688,161.664 280,174.352 229.656,124.008 218.344,135.32 229.544,146.52 210.24,223.72
			225.76,227.608 242.736,159.712 261.928,178.904 231.328,229.904 245.04,238.144 273.592,190.568 280,196.976 443.312,33.664
			409.648,0 206.176,97.664 150.408,97.664 93.648,121.176 23.512,191.312 0,248.072 0,347.256 23.512,404.016 93.648,474.152
			150.408,497.664 249.592,497.664 306.352,474.152 376.488,404.016 400,347.256 400,291.488 497.664,88.016 		"/>
	</g>
</g>
<g>
	<g>
		<path d="M200,241.664c-30.88,0-56,25.12-56,56s25.12,56,56,56s56-25.12,56-56S230.88,241.664,200,241.664z M200,337.664
			c-22.056,0-40-17.944-40-40c0-22.056,17.944-40,40-40c22.056,0,40,17.944,40,40C240,319.72,222.056,337.664,200,337.664z"/>
	</g>
</g>
<g>
	<g>
		<rect x="326.098" y="157.055" transform="matrix(0.7071 -0.7071 0.7071 0.7071 -19.2928 283.5324)" width="13.02" height="16"/>
	</g>
</g>
<g>
</g>
<g>
</g>
<g>
</g>
<g>
</g>
<g>
</g>
<g>
</g>
<g>
</g>
<g>
</g>
<g>
</g>
<g>
</g>
<g>
</g>
<g>
</g>
<g>
</g>
<g>
</g>
<g>
</g>
</svg>
