<svg id="Capa_1" enable-background="new 0 0 512.001 512.001" height="512" viewBox="0 0 512.001 512.001" width="512" xmlns="http://www.w3.org/2000/svg" >
<g>
<path fill="#C0C0C0" d="m489.788 404.935-21.213-21.213-21.215 21.213-21.212-21.213 21.212-21.214-21.212-21.213-21.213 21.214-21.213-21.214 21.213-21.213-21.213-21.213-84.853 84.853 21.213 21.213 21.214-21.215 128.279 128.281 42.425-42.426-43.427-43.427z"/>
<path fill="#C0C0C0" d="m85.853 468.573 21.213 21.215 21.213-21.213-21.213-21.214 21.213-21.213 21.214 21.213 21.213-21.213-21.214-21.213 21.214-21.215 21.213 21.215 21.213-21.213-84.853-84.853-21.213 21.213 21.215 21.213-128.281 128.28 42.426 42.426z"/>
<path fill="#ff726f " d="m187.435 279.252h30.629v59.999h-30.629z" transform="matrix(.707 -.707 .707 .707 -159.29 233.943)"/>
<path fill="#ff726f " d="m460.788 8.788-183.578 183.578 42.426 42.426 183.577-183.579c11.717-11.715 11.717-30.709 0-42.426-11.717-11.716-30.71-11.716-42.425.001z"/>
<path fill="lightgreen" d="m298.867 341.293 42.426-42.426-290.08-290.079c-11.715-11.717-30.709-11.717-42.426 0s-11.717 30.71 0 42.426z"/></g></svg>
